<svg width="216" height="33" viewBox="0 0 216 33" fill="none" xmlns="http://www.w3.org/2000/svg">
<g clip-path="url(#clip0_2_2824)">
<path fill-rule="evenodd" clip-rule="evenodd" d="M158.255 6.34645C159.498 6.34645 160.569 6.54645 161.465 6.94112C162.252 7.28779 163.009 7.79445 163.739 8.45845L164.05 8.75179L161.529 10.4291L161.258 10.2011C160.943 9.93897 160.6 9.71011 160.235 9.51845C159.703 9.25045 159.042 9.11579 158.255 9.11579C157.647 9.11579 157.075 9.22245 156.539 9.43579C156.003 9.64912 155.55 9.94912 155.18 10.3371C154.903 10.6331 154.696 10.9251 154.554 11.2118C154.41 11.4985 154.291 11.8811 154.196 12.3585C154.092 12.918 154.028 13.4837 154.004 14.0518C153.971 14.7038 153.956 15.5718 153.956 16.6545C153.956 18.6811 154.033 20.1051 154.191 20.9238C154.347 21.7425 154.677 22.4265 155.18 22.9718C155.55 23.3518 156.003 23.6505 156.539 23.8678C157.075 24.0851 157.647 24.1931 158.255 24.1931C159.042 24.1931 159.703 24.0598 160.235 23.7905C160.563 23.6238 160.909 23.3931 161.271 23.0971L161.546 22.8651L164.05 24.5585C163.547 25.0518 163.006 25.4825 162.427 25.8518C161.848 26.2185 161.221 26.4958 160.548 26.6825C159.875 26.8691 159.11 26.9625 158.255 26.9625C157.534 26.9625 156.853 26.8798 156.212 26.7185C155.564 26.5537 154.944 26.3034 154.367 25.9745C153.795 25.6526 153.269 25.2599 152.802 24.8065C152.156 24.1571 151.692 23.4665 151.407 22.7331C151.114 21.9663 150.937 21.1631 150.879 20.3478C150.81 19.2749 150.777 18.2001 150.781 17.1251V16.2051C150.784 15.1811 150.8 14.3518 150.829 13.7198C150.863 12.9958 150.939 12.3331 151.057 11.7305C151.176 11.1278 151.371 10.5651 151.642 10.0398C151.911 9.51712 152.298 9.00379 152.802 8.50379C153.502 7.81302 154.34 7.26645 155.265 6.89712C156.215 6.52534 157.231 6.33821 158.255 6.34645ZM185.335 6.42512V19.7198C185.335 20.6105 185.51 21.3865 185.862 22.0491C186.213 22.7131 186.712 23.2225 187.358 23.5798C188.004 23.9358 188.759 24.1145 189.624 24.1145C190.487 24.1145 191.245 23.9358 191.895 23.5798C192.546 23.2225 193.05 22.7145 193.407 22.0571C193.762 21.3985 193.94 20.6198 193.94 19.7198V6.42512H197.09V19.8691C197.09 21.2425 196.766 22.4625 196.12 23.5305C195.473 24.5985 194.584 25.4238 193.449 26.0078C192.314 26.5918 191.039 26.8851 189.623 26.8851C188.218 26.8851 186.95 26.5918 185.819 26.0078C184.707 25.4406 183.784 24.5819 183.155 23.5305C182.508 22.4638 182.186 21.2438 182.186 19.8691V6.42512H185.335ZM170.064 6.42512V24.0918H180.149V26.8851H166.86V6.42512H170.064ZM115.154 6.42512V10.9011H106.061V14.3251H113.834V18.8011H106.063V22.4078H115.156V26.8851H100.92V6.42512H115.154ZM83.7022 6.42512L88.3992 15.4478L93.1114 6.42512H98.1676V26.8851H93.0258V17.0891L90.0514 22.1425H86.7622L83.7892 17.0891V26.8851H78.646V6.42512H83.7022ZM70.3779 6.42512L77.9898 26.8851H72.6186L71.6419 23.8398H65.1918L64.1723 26.8851H58.7845L66.3992 6.42512H70.3779ZM50.899 6.42512C52.3662 6.42512 53.5639 6.60912 54.4909 6.97712C55.4165 7.34512 56.3421 7.99045 57.2649 8.91045L53.1881 11.6811L52.9878 11.5225C52.8115 11.3843 52.6234 11.2607 52.4256 11.1531C52.0153 10.9371 51.5041 10.8291 50.8921 10.8291C50.0246 10.8291 49.3615 11.1225 48.8987 11.7131C48.7162 11.9491 48.5757 12.2127 48.4828 12.4931C48.3737 12.7998 48.2922 13.2745 48.2342 13.9145C48.1789 14.5545 48.1513 15.4678 48.1513 16.6545V17.0411C48.1568 18.0411 48.1844 18.8291 48.2342 19.4011C48.2922 20.0465 48.3737 20.5251 48.4828 20.8371C48.5906 21.1505 48.7287 21.4131 48.8987 21.6238C49.3518 22.1958 50.0163 22.4811 50.8921 22.4811C51.3909 22.4811 51.7984 22.4145 52.1147 22.2811C52.4297 22.1478 52.7198 21.9478 52.9837 21.6811C53.2379 21.4411 53.4258 21.1185 53.5487 20.7131C53.6717 20.3091 53.7325 19.8998 53.7325 19.4851V19.2505H50.8921V15.1225H58.7638V17.8425C58.7638 19.5171 58.6146 20.8718 58.3189 21.9078C58.0417 22.9104 57.4989 23.8262 56.7441 24.5651C55.1913 26.1118 53.242 26.8851 50.899 26.8851C48.6113 26.8851 46.7063 26.1305 45.1797 24.6198C44.2776 23.7371 43.7016 22.7331 43.4584 21.6118C43.2139 20.4878 43.0909 19.0611 43.0909 17.3318V15.9785C43.0909 14.2478 43.2139 12.8185 43.4584 11.6918C43.7029 10.5651 44.2776 9.55845 45.1811 8.67579C45.9617 7.91179 46.8044 7.34512 47.7078 6.97712C48.6113 6.60912 49.6737 6.42512 50.899 6.42512ZM208.802 6.42512C210.066 6.42512 211.181 6.65179 212.145 7.10512C213.108 7.55845 213.845 8.20912 214.358 9.05579C214.871 9.90245 215.128 10.8918 215.128 12.0238C215.135 12.691 215 13.3526 214.732 13.9678C214.491 14.5298 214.137 15.0401 213.691 15.4691C213.294 15.8542 212.82 16.1572 212.298 16.3598C213.198 16.6958 213.949 17.2718 214.553 18.0865C215.157 18.8998 215.458 19.9051 215.458 21.1025C215.458 22.3385 215.191 23.3878 214.659 24.2531C214.135 25.1118 213.353 25.7967 212.417 26.2171C211.454 26.6625 210.353 26.8838 209.117 26.8838H200.634V6.42512H208.802ZM141.797 6.42512C143.314 6.42512 144.64 6.61579 145.776 6.99845C146.785 7.33712 147.681 7.85712 148.463 8.55579L148.75 8.82779L144.937 11.4185C144.611 11.2003 144.246 11.0425 143.86 10.9531C143.249 10.8145 142.514 10.7465 141.656 10.7465C140.847 10.7465 140.229 10.9345 139.805 11.3118C139.381 11.6891 139.17 12.1225 139.17 12.6091C139.17 12.9691 139.307 13.2811 139.579 13.5478C139.854 13.8171 140.239 14.0011 140.735 14.0998L140.992 14.1425L143.479 14.4731C145.288 14.7318 146.641 15.2878 147.536 16.1438C148.072 16.6505 148.462 17.2638 148.701 17.9865C148.941 18.7091 149.061 19.5678 149.061 20.5611C149.061 21.8785 148.706 23.0145 147.995 23.9705C147.283 24.9291 146.323 25.6545 145.112 26.1451C143.901 26.6385 142.565 26.8838 141.105 26.8838C139.401 26.8838 137.917 26.6865 136.654 26.2905C135.522 25.9334 134.486 25.3382 133.622 24.5478L133.29 24.2345L137.197 21.5705C137.587 21.8118 138.037 22.0025 138.548 22.1425C139.377 22.3691 140.239 22.4798 141.134 22.4798C143.103 22.4798 144.088 21.8785 144.088 20.6718C144.088 20.1571 143.95 19.7611 143.678 19.4851C143.443 19.2478 143.078 19.0825 142.581 18.9878L142.321 18.9465L139.834 18.6011C138.007 18.3531 136.627 17.7585 135.693 16.8198C134.75 15.8731 134.279 14.5238 134.279 12.7758C134.279 11.5518 134.583 10.4585 135.191 9.49579C135.799 8.53579 136.669 7.78245 137.806 7.23979C138.94 6.69712 140.272 6.42512 141.799 6.42512H141.797ZM125.627 6.42512C127.129 6.42512 128.416 6.73179 129.487 7.34512C130.559 7.95712 131.374 8.76379 131.934 9.76512C132.495 10.7651 132.774 11.8451 132.774 13.0051C132.774 14.2878 132.442 15.3851 131.779 16.2971C131.116 17.2091 130.31 17.8945 129.364 18.3531L133.88 26.8838H127.933L124.217 19.2651H122.475V26.8838H117.331V6.42512H125.627ZM208.836 17.8611H203.837V24.0918H208.836C209.555 24.0918 210.172 23.9585 210.689 23.6918C211.205 23.4251 211.598 23.0585 211.867 22.5905C212.135 22.1238 212.268 21.5798 212.268 20.9638C212.268 20.3371 212.135 19.7931 211.867 19.3345C211.591 18.8693 211.179 18.4935 210.682 18.2545C210.16 17.9931 209.545 17.8611 208.836 17.8611ZM68.5253 14.1851L66.6423 19.6425H70.2894L68.5253 14.1851ZM208.534 9.21579H203.837V15.0678H208.534C209.588 15.0678 210.421 14.8105 211.034 14.2971C211.646 13.7851 211.953 13.0651 211.953 12.1411C211.953 11.5358 211.812 11.0105 211.529 10.5678C211.246 10.1233 210.831 9.77155 210.338 9.55845C209.824 9.33179 209.224 9.21579 208.534 9.21579ZM125.399 10.9438H122.475V15.0691H125.399C125.85 15.0691 126.246 14.9731 126.587 14.7825C126.914 14.605 127.183 14.3438 127.365 14.0278C127.542 13.7145 127.632 13.3771 127.632 13.0131C127.632 12.6491 127.542 12.3091 127.365 11.9931C127.185 11.6735 126.916 11.4092 126.587 11.2305C126.225 11.0338 125.815 10.9348 125.399 10.9438Z" fill="#FFFFFE"/>
<path fill-rule="evenodd" clip-rule="evenodd" d="M31.0887 10.6052L16.3994 20.5919H24.9522C23.4243 23.8439 20.0617 26.1012 16.1591 26.1012C14.2116 26.1039 12.3099 25.5316 10.7092 24.4612L5.16943 28.2266C8.14066 30.9341 12.0728 32.4416 16.1591 32.4399C25.0834 32.4399 32.3182 25.3732 32.3182 16.6532C32.3182 14.5106 31.8816 12.4666 31.0887 10.6052Z" fill="#308CF4"/>
<path fill-rule="evenodd" clip-rule="evenodd" d="M29.3951 7.59714L24.0695 11.2171C22.3192 8.79047 19.4291 7.20647 16.1592 7.20647C10.8184 7.20647 6.48883 11.4358 6.48883 16.6531C6.48883 18.6438 7.1174 20.4891 8.19357 22.0105L2.86798 25.6305C0.992713 22.9871 -0.00732668 19.8568 4.04128e-05 16.6531C4.04128e-05 7.93581 7.23621 0.869141 16.1592 0.869141C21.634 0.869141 26.4733 3.52781 29.3937 7.59714" fill="#FFFFFE"/>
</g>
<defs>
<clipPath id="clip0_2_2824">
<rect width="215.51" height="32" fill="white" transform="translate(0 0.869141)"/>
</clipPath>
</defs>
</svg>
