<svg width="14" height="18" viewBox="0 0 14 18" fill="none" xmlns="http://www.w3.org/2000/svg">
<path fill-rule="evenodd" clip-rule="evenodd" d="M2 6.5C2 3.73858 4.23858 1.5 7 1.5C9.76142 1.5 12 3.73858 12 6.5C12 8.46226 10.8697 10.1617 9.22185 10.9806C9.00937 11.0862 8.875 11.303 8.875 11.5403V12.75H5.125V11.5403C5.125 11.303 4.99063 11.0862 4.77815 10.9806C3.13028 10.1617 2 8.46226 2 6.5ZM7 0.25C3.54822 0.25 0.75 3.04822 0.75 6.5C0.75 8.8143 2.00795 10.8338 3.875 11.9137V13.375C3.875 13.7202 4.15482 14 4.5 14H9.5C9.84518 14 10.125 13.7202 10.125 13.375V11.9137C11.9921 10.8338 13.25 8.8143 13.25 6.5C13.25 3.04822 10.4518 0.25 7 0.25ZM4.5 16.5C4.15482 16.5 3.875 16.7798 3.875 17.125C3.875 17.4702 4.15482 17.75 4.5 17.75H9.5C9.84518 17.75 10.125 17.4702 10.125 17.125C10.125 16.7798 9.84518 16.5 9.5 16.5H4.5ZM3.875 15.25C3.875 14.9048 4.15482 14.625 4.5 14.625H9.5C9.84518 14.625 10.125 14.9048 10.125 15.25C10.125 15.5952 9.84518 15.875 9.5 15.875H4.5C4.15482 15.875 3.875 15.5952 3.875 15.25ZM4.5 6.5C4.5 5.11929 5.61929 4 7 4C7.34518 4 7.625 3.72018 7.625 3.375C7.625 3.02982 7.34518 2.75 7 2.75C4.92893 2.75 3.25 4.42893 3.25 6.5C3.25 6.84518 3.52982 7.125 3.875 7.125C4.22018 7.125 4.5 6.84518 4.5 6.5Z" fill="#356AFD"/>
</svg>
